<?xml version="1.0" standalone="no"?>
<!DOCTYPE svg PUBLIC "-//W3C//DTD SVG 20010904//EN"
 "http://www.w3.org/TR/2001/REC-SVG-20010904/DTD/svg10.dtd">
<svg version="1.0" xmlns="http://www.w3.org/2000/svg"
 width="512.000000pt" height="512.000000pt" viewBox="0 0 512.000000 512.000000"
 preserveAspectRatio="xMidYMid meet">
<metadata>
Created by potrace 1.11, written by Peter Selinger 2001-2013
</metadata>
<g transform="translate(0.000000,512.000000) scale(0.100000,-0.100000)"
fill="#000000" stroke="none">
<path d="M791 4579 c-59 -12 -115 -42 -157 -84 -66 -64 -86 -107 -100 -214 -2
-18 -7 -37 -10 -42 -3 -5 -2 -9 3 -9 9 0 9 -559 0 -584 -4 -9 -3 -16 1 -16 9
0 7 -293 -2 -309 -4 -6 -4 -11 1 -11 4 0 8 -135 8 -300 0 -165 -4 -300 -8
-300 -5 0 -5 -5 -2 -11 9 -14 10 -963 1 -978 -4 -6 -4 -11 1 -11 10 0 9 -292
-1 -309 -4 -6 -4 -11 1 -11 12 0 10 -423 -2 -432 -6 -5 -6 -8 1 -8 11 0 10
-52 -1 -71 -4 -5 -3 -9 2 -9 4 0 8 -19 8 -43 0 -23 3 -49 6 -57 4 -8 17 -34
28 -58 12 -24 19 -48 15 -53 -3 -5 0 -8 8 -7 7 2 12 -4 10 -12 -2 -8 0 -12 4
-8 4 4 21 -5 39 -20 71 -60 74 -62 96 -62 5 0 7 -6 3 -12 -5 -10 -4 -10 6 -1
8 8 20 9 36 3 12 -5 98 -9 190 -9 114 0 169 -4 174 -11 5 -8 9 -6 14 5 3 9 10
13 16 10 6 -4 7 -12 3 -18 -5 -9 -3 -9 8 0 20 16 189 20 199 4 5 -9 9 -8 14 4
3 9 10 13 16 10 6 -4 7 -12 3 -18 -5 -9 -3 -9 8 0 20 16 189 20 199 4 5 -9 9
-8 14 4 3 9 10 13 16 10 6 -4 7 -12 4 -18 -5 -8 -3 -8 7 1 18 17 123 17 113
-1 -6 -9 -5 -9 7 0 12 9 110 13 393 13 207 -1 381 2 386 5 5 3 13 -2 18 -11 8
-15 10 -15 15 1 4 9 11 13 17 10 6 -4 7 -12 4 -18 -5 -8 -3 -8 7 0 18 18 123
18 113 1 -6 -10 -5 -10 7 -1 21 17 309 20 319 3 5 -8 9 -7 14 5 3 9 10 13 16
10 6 -4 7 -12 3 -18 -5 -9 -3 -9 8 0 20 16 189 20 199 4 5 -9 9 -8 14 4 3 9
10 13 16 10 6 -4 7 -12 3 -18 -5 -9 -3 -9 8 0 20 16 189 20 199 4 5 -9 9 -8
14 4 3 9 10 13 16 10 6 -4 7 -12 4 -18 -5 -8 -3 -8 7 0 18 18 123 18 113 1 -6
-10 -5 -10 7 -1 11 9 90 13 295 13 333 1 332 1 393 33 37 19 52 22 61 14 10
-9 11 -9 6 1 -10 16 54 84 73 77 10 -4 11 -2 3 7 -12 15 9 53 22 41 4 -4 4 0
1 9 -4 10 -3 23 1 30 5 7 10 20 12 28 6 23 17 651 12 695 -2 12 -2 240 0 465
0 91 0 170 0 175 -2 12 -2 240 0 465 0 91 0 170 0 175 -2 12 -2 240 0 465 0
91 0 170 0 175 -2 12 -2 240 0 465 0 91 0 167 0 170 -6 25 -3 100 3 100 5 0 6
4 3 9 -3 5 -7 56 -10 114 -3 84 -8 115 -27 154 -33 67 -95 128 -165 160 l-59
28 -1755 1 c-965 0 -1770 -3 -1789 -7z"/>
<path d="M475 840 c-3 -5 -1 -10 4 -10 6 0 11 5 11 10 0 6 -2 10 -4 10 -3 0
-8 -4 -11 -10z"/>
<path d="M1015 500 c3 -5 8 -10 11 -10 2 0 4 5 4 10 0 6 -5 10 -11 10 -5 0 -7
-4 -4 -10z"/>
<path d="M1095 500 c3 -5 8 -10 11 -10 2 0 4 5 4 10 0 6 -5 10 -11 10 -5 0 -7
-4 -4 -10z"/>
<path d="M1495 500 c3 -5 8 -10 11 -10 2 0 4 5 4 10 0 6 -5 10 -11 10 -5 0 -7
-4 -4 -10z"/>
<path d="M1575 500 c3 -5 8 -10 11 -10 2 0 4 5 4 10 0 6 -5 10 -11 10 -5 0 -7
-4 -4 -10z"/>
<path d="M2239 493 c-13 -16 -12 -17 4 -4 16 13 21 21 13 21 -2 0 -10 -8 -17
-17z"/>
<path d="M2935 500 c3 -5 8 -10 11 -10 2 0 4 5 4 10 0 6 -5 10 -11 10 -5 0 -7
-4 -4 -10z"/>
<path d="M3015 500 c3 -5 8 -10 11 -10 2 0 4 5 4 10 0 6 -5 10 -11 10 -5 0 -7
-4 -4 -10z"/>
<path d="M3415 500 c3 -5 8 -10 11 -10 2 0 4 5 4 10 0 6 -5 10 -11 10 -5 0 -7
-4 -4 -10z"/>
<path d="M3495 500 c3 -5 8 -10 11 -10 2 0 4 5 4 10 0 6 -5 10 -11 10 -5 0 -7
-4 -4 -10z"/>
<path d="M2196 473 c-6 -14 -5 -15 5 -6 7 7 10 15 7 18 -3 3 -9 -2 -12 -12z"/>
<path d="M2516 473 c-6 -14 -5 -15 5 -6 7 7 10 15 7 18 -3 3 -9 -2 -12 -12z"/>
<path d="M4230 446 c0 -2 7 -7 16 -10 8 -3 12 -2 9 4 -6 10 -25 14 -25 6z"/>
</g>
</svg>
